Patient4_TMGait_0pt6_01_left_18_EMG.mot
version=1
nRows=30
nColumns=33
inDegrees=no
endheader
time	1LAddLong	2LGlutMax	3LGlutMed	4LIliopsoas	5LSemiMemb	6LBicFemLong	7LRecFem	8LVastMed	9LVastLat	10LGasMed	11LTibAnt	12lTibPost	13LPeroneusLong	14LSol	15LExtDigLong	16LFlexDigLong	17RAddLong	18RGlutMax	19RGlutMed	20RIliopsoas	21RSemiMemb	22RBicFemLong	23RRecFem	24RVastMed	25RVastLat	26RGasMed	27RTibAnt	28RTibPost	29RPeroneusLong	30RSol	31RExtDigLong	32RFlexDigLong
22.302	0.00946	1.0219	0.1358	0.008392	-0.0354	0.084991	-0.35385	0.014343	-0.006256	-0.081482	-0.06485	0.027466	0.2121	-0.15991	-0.10986	0.052185	-0.004272	0.36163	0.16769	0.092468	-0.13123	0.074768	0.44128	-0.010834	0.027924	-0.014038	0.007019	-0.020905	-0.090179	-0.081024	-0.001373	-0.009308
22.303	-0.023956	1.0799	0.099487	0.019531	-0.11017	0.1033	-0.088959	0.028229	0.13214	0.026855	-0.025024	0.02182	-0.44586	-0.10971	-0.097198	0.046387	-0.030365	0.35507	0.20798	0.06546	-0.18951	0.064697	0.43091	-0.080261	0.018921	-0.007019	0.01358	-0.026855	-0.10742	-0.007324	-0.001373	-0.002441
22.304	-0.033722	1.1528	0.14008	0.044556	-0.049286	0.039215	0.001068	0.03418	0.067902	0.046997	0.029144	0.024567	-0.34592	-0.22507	-0.078278	0.052948	-0.000153	0.34271	0.15015	0.10925	-0.24109	0.015564	0.3804	0.022125	0.047913	0.001984	0.022583	-0.024872	-0.045776	-0.045624	-0.00061	-0.00061
22.305	-0.017853	1.1781	0.20752	0.017242	0.043793	0.02594	-0.003052	0.024261	-0.019226	0.016632	0.026703	0.036469	0.47226	-0.14267	-0.085449	0.061188	0.084229	0.38803	0.13763	0.10483	-0.30197	-0.025635	0.44434	0.071106	0.039825	-0.005188	0.023804	-0.003967	-0.002136	-0.020752	-0.002594	-0.010529
22.306	0.040894	1.1749	0.10513	0.019073	0.045013	0.055847	-0.13458	-0.007935	-0.035553	-0.019836	0.012207	0.029602	0.50049	0.10803	0.021973	0.063019	0.11704	0.37048	0.065918	0.078583	-0.25314	-0.002289	0.43076	0.11078	0.036621	0.001373	0.015106	-0.006409	0.072174	-0.016174	-0.005798	-0.00885
22.307	0.014954	1.2514	-0.018768	0.000916	0.13702	0.12039	-0.20035	-0.023956	-0.18692	-0.014648	-0.008087	0.019989	-0.38849	0.1149	0.081635	0.057678	0.075226	0.30609	-0.003967	0.078888	-0.080414	-0.006866	0.45151	0.21179	0.056	-0.004272	-0.016174	-0.015717	0.10346	-0.010986	0.001526	-0.003204
22.308	0.083923	1.2561	0.023193	0.000305	0.020752	0.13855	-0.20813	-0.013885	-0.44983	-0.030975	-0.025482	0.019073	-0.42633	0.18814	0.05661	0.056458	0.036621	0.23773	-0.041046	0.003204	0.000916	-0.018616	0.42999	0.25452	0.04425	-0.016937	0.001831	-0.016327	0.032349	0.015564	-0.000153	-0.008392
22.309	0.099945	1.2589	0.058594	0.029449	-0.031433	-0.10193	-0.20065	-0.009308	-0.39352	0.009613	-0.010986	0.023499	-0.52246	0.29953	-0.00061	0.06073	0.048981	0.19547	-0.049591	-0.038147	0.003357	-0.040131	0.5275	0.19394	0.031281	-0.018463	0.042572	-0.019226	-0.014954	0.018463	0.000305	-0.012817
22.31	0.021057	1.2584	-0.091553	0.043793	-0.028076	0.04303	-0.19119	0.013123	-0.28961	0.033264	-0.00473	0.027008	-0.2182	0.215	-0.045013	0.04837	0.014191	0.13031	-0.12039	-0.020752	-0.019836	-0.095367	0.495	0.20096	0.021057	-0.014954	0.014954	-0.012512	-0.016785	0.02121	-0.001221	-0.020447
22.311	0.042725	1.2595	-0.20493	0.025177	-0.030975	0.04364	-0.19714	0.027161	-0.18845	0.041656	0.018921	0.022888	-0.15945	0.072174	0.00824	0.039063	-0.037537	0.064697	-0.12512	-0.080414	0.015717	-0.047455	0.54779	0.2478	0.037689	-0.016479	-0.098572	-0.014648	-0.02182	0.048523	-0.001831	-0.02121
22.312	0.031433	1.3684	-0.2095	0.006714	-0.041962	-0.092926	-0.16998	0.022278	-0.16541	0.039063	0.004272	0.032959	-0.040894	-0.005798	-0.011902	0.024719	-0.007019	-0.026703	-0.08728	-0.1001	0.042725	-0.055542	0.56168	0.15762	0.027161	-0.021362	-0.20615	-0.018005	0.010223	0.020752	-0.00351	-0.020142
22.313	0.019531	1.4966	-0.1294	0.000763	-0.020905	-0.22308	-0.21927	0.021515	-0.12299	0.069427	-0.002289	0.025787	0.032349	-0.1918	-0.042114	0.010529	0.045776	-0.043335	-0.11292	-0.11185	-0.001526	-0.048218	0.57465	0.051575	0.014801	-0.008392	-0.12024	-0.017242	0.033875	-0.070648	-0.002747	-0.016632
22.314	0.02655	1.6512	0.09903	-0.001373	0.047302	-0.072021	-0.29007	0.004578	-0.01236	0.1445	-0.005035	0.03006	0.096283	-0.36041	-0.023499	-0.005341	0.028839	-0.087585	-0.14877	-0.12192	-0.038757	-0.085602	0.5452	0.026703	0.026398	0.002441	0.13596	-0.016785	-0.022888	-0.1506	0.001678	-0.022278
22.315	0.019836	1.864	-0.000305	0.020294	0.070496	0.006866	-0.32547	0.003967	-0.000916	0.2179	-0.004425	0.031128	0.005646	-0.45624	0.022278	-0.02121	-0.009003	-0.13702	-0.10178	-0.1329	-0.078888	-0.19257	0.50995	-0.053253	0.016632	-0.001068	0.24551	-0.013123	-0.036011	-0.22217	-0.001373	-0.016022
22.316	0.012817	1.9698	-0.11444	0.019684	0.032349	-0.14236	-0.42496	-0.01358	0.11032	0.24307	0.006256	0.036163	0.030518	-0.35019	0.055847	-0.018921	-0.061951	-0.26901	-0.14389	-0.16312	-0.064545	-0.2565	0.45792	0.008392	0.062408	-0.006561	0.34042	-0.009308	-0.032196	-0.20264	0	-0.011902
22.317	0.002594	1.9028	-0.17136	0.003815	-0.026245	0.025177	-0.41214	-0.027771	0.23773	0.23514	0.009155	0.0383	-0.028076	-0.13794	0.054474	-0.009308	-0.08194	-0.33081	-0.2063	-0.23972	-0.066223	-0.20447	0.45059	-0.02121	0.032959	-0.002136	0.04364	-0.007477	-0.112	-0.2002	0.000305	-0.012665
22.318	-0.013885	1.8747	-0.18158	-0.004578	-0.069275	0.20248	-0.35706	-0.039063	0.29434	0.18127	0.008392	0.031128	-0.018463	-0.14511	0.010681	-0.022125	-0.027008	-0.33722	-0.19165	-0.21668	-0.068817	-0.12283	0.50705	-0.07782	0.011902	0.006866	0.00946	-0.00885	-0.034027	-0.18066	-0.002747	-0.006256
22.319	-0.014954	1.8173	-0.12161	0.022736	-0.112	0.14297	-0.33173	-0.033569	0.28412	-0.019531	0.00885	0.034943	0.015869	-0.29526	-0.01358	0.011749	-0.006714	-0.31906	-0.087433	-0.16449	-0.077209	-0.10727	0.5098	-0.11551	0.027618	0.008698	0.14847	-0.007629	0.14053	-0.2417	-0.000458	-0.010376
22.32	-0.002136	1.6504	-0.04715	0.018616	-0.11032	0.012512	-0.25101	-0.029449	0.063477	-0.24674	0.012665	0.031891	0.007935	-0.29984	0.003967	0.02121	0.011597	-0.31525	0.021667	-0.063171	-0.11261	-0.045471	0.48935	-0.058899	0.032501	-0.002289	0.31479	-0.016632	0.070801	-0.20035	0.001984	-0.004578
22.321	0.013885	1.4427	-0.032806	0.012512	-0.088043	-0.33661	-0.19318	-0.018768	-0.17044	-0.23468	0.009308	0.029449	0.015869	-0.19806	-0.00946	-0.009918	0.003052	-0.37125	-0.13077	-0.04715	-0.13229	-0.067139	0.47821	-0.06485	0.02243	-0.001068	0.23086	-0.014496	-0.027313	-0.14084	0.00351	-0.009003
22.322	0.018768	1.2561	-0.000458	0.018463	-0.0383	-0.43793	-0.26825	-0.014648	-0.27374	-0.17593	0.015869	0.029449	0.031128	-0.06485	-0.017853	-0.012665	-0.010223	-0.3688	-0.57739	0.003357	-0.14679	-0.12238	0.52856	0.020142	0.009155	0.002594	-0.047302	-0.012665	-0.022278	-0.12268	-0.006714	-0.009613
22.323	0.032654	1.144	-0.024414	0.005188	-0.005493	-0.28076	-0.22614	-0.012665	-0.16922	-0.10376	0.010681	0.027313	0.013428	-0.037537	-0.005188	-0.014954	-0.021515	-0.41458	-0.63446	-0.044098	-0.13107	-0.18524	0.49896	0.057678	-0.002594	-0.002289	-0.19058	-0.01358	-0.022888	-0.032806	-0.001526	-0.002747
22.324	0.050507	1.0173	0.035706	-0.021362	0.042572	-0.15045	-0.19211	-0.014648	-0.10147	-0.044098	0.008087	0.030823	0.001373	-0.013733	-0.007324	-0.01236	-0.034332	-0.43137	-0.55557	0.050812	-0.09552	-0.32623	0.54138	0.14618	0.014191	-0.008392	0.026855	-0.012512	-0.037384	0.060577	-0.001526	-0.010986
22.325	0.047455	0.86502	-0.049133	0.009766	0.066223	-0.039673	-0.14023	-0.009155	0.041046	-0.002747	0.017548	0.028229	-0.00412	-0.040283	-0.02594	-0.014801	-0.066986	-0.49454	-0.64987	0.075378	-0.103	-0.457	0.51712	0.13763	0.007172	-0.002899	0.3595	-0.013428	-0.11154	0.019226	-0.002136	-0.015259
22.326	0.078278	0.72617	0.040588	0.032959	0.031128	0.11795	-0.10849	-0.005341	0.080566	0.040283	0.013123	0.024261	-0.018921	-0.024872	-0.013123	-0.013733	-0.13123	-0.50507	-0.5072	0.24094	-0.066986	-0.4599	0.50003	0.093842	-0.002899	0.005035	0.59753	-0.01297	-0.22675	-0.030975	-0.001526	-0.025177
22.327	0.013428	0.55222	0.015717	0.031433	0.007019	0.1622	-0.16342	0.005798	0.076294	0.069733	0.011597	0.019989	-0.05722	0.17273	-0.015411	-0.007629	-0.12604	-0.5307	-0.47546	0.29251	-0.099182	-0.47546	0.51712	0.015411	0.005951	0.000153	0.60501	-0.009613	-0.25467	-0.059814	-0.001831	-0.016022
22.328	0.030365	0.4097	0.036011	0.013428	-0.004425	0.18295	-0.18463	0.004272	0.066223	0.064087	0.016022	0.010834	-0.040588	0.25436	-0.042419	-0.005035	-0.09552	-0.54138	-0.54504	0.20599	-0.1062	-0.47516	0.53726	-0.050507	-0.015717	-0.005341	0.12604	-0.009918	-0.21652	-0.075226	0	-0.024719
22.329	-0.006866	0.3038	0.077515	0.020294	-0.036926	0.24704	-0.17853	0.02121	0.06546	0.030823	0.013275	0.01358	0.01297	0.271	-0.037384	-0.014496	-0.054779	-0.51071	-0.6691	0.090027	-0.17075	-0.51895	0.53558	-0.1236	-0.019379	0.000153	-0.58365	-0.010681	-0.14404	0.023956	-0.004425	-0.027161
22.33	0.000916	0.17044	-0.084076	0.01709	-0.079346	0.27359	-0.25681	0.010681	0.078583	-0.007935	0.006256	0.002289	0.015411	0.30579	-0.014191	-0.010223	-0.035706	-0.51361	-0.64728	0.023499	-0.18265	-0.37949	0.55405	-0.19089	-0.048523	0.007782	-1.0559	-0.007935	0.10086	0.052032	-0.005493	-0.025177
22.331	-0.019989	0.13916	0.032501	-0.004272	-0.10483	0.22614	-0.26642	-0.005035	0.076599	-0.006409	0.014191	-0.004578	-0.023193	0.26932	0.000763	-0.018311	-0.019379	-0.58289	-0.40024	-0.088348	-0.19333	-0.32257	0.49545	-0.22766	-0.044403	0.012512	-0.67123	-0.007629	0.12711	0.018311	-0.003662	-0.028229
